HIERARCHY
ROOT Hips
{
  OFFSET 49.4435 49.021 -5.08872
  CHANNELS 6 Xposition Yposition Zposition Zrotation Xrotation Yrotation
  JOINT spine
  {
    OFFSET 0 6.2448 0.359107
    CHANNELS 3 Zrotation Xrotation Yrotation
    JOINT spine1
    {
      OFFSET 0 9.06941 0
      CHANNELS 3 Zrotation Xrotation Yrotation
      JOINT spine2
      {
        OFFSET 0 8.69014 0
        CHANNELS 3 Zrotation Xrotation Yrotation
        JOINT Neck
        {
          OFFSET 0 22.3112 1.06372
          CHANNELS 3 Zrotation Xrotation Yrotation
          JOINT Head
          {
            OFFSET 0 6.74081 0
            CHANNELS 3 Zrotation Xrotation Yrotation
            End Site
            {
              OFFSET 0 16.3165 -5.38097
            }
          }
        }
        JOINT RightShoulder
        {
          OFFSET -3.65916 9.38468 -0.509514
          CHANNELS 3 Zrotation Xrotation Yrotation
          JOINT RightArm
          {
            OFFSET 0 12.3089 0
            CHANNELS 3 Zrotation Xrotation Yrotation
            JOINT RightArmRoll
            {
              OFFSET 0 6.21375 0
              CHANNELS 3 Zrotation Xrotation Yrotation
              JOINT RightForeArm
              {
                OFFSET 0 18.0985 0
                CHANNELS 3 Zrotation Xrotation Yrotation
                JOINT RightForeArmRoll
                {
                  OFFSET 0 6.9728 0
                  CHANNELS 3 Zrotation Xrotation Yrotation
                  JOINT RightHand
                  {
                    OFFSET 0 13.9929 0
                    CHANNELS 3 Zrotation Xrotation Yrotation
                    End Site
                    {
                      OFFSET 0 0 0
                    }
                  }
                }
              }
            }
          }
        }
        JOINT LeftShoulder
        {
          OFFSET 3.65916 9.38468 -0.509514
          CHANNELS 3 Zrotation Xrotation Yrotation
          JOINT LeftArm
          {
            OFFSET 0 12.3089 0
            CHANNELS 3 Zrotation Xrotation Yrotation
            JOINT LeftArmRoll
            {
              OFFSET 0 6.21375 0
              CHANNELS 3 Zrotation Xrotation Yrotation
              JOINT LeftForeArm
              {
                OFFSET 0 18.0985 0
                CHANNELS 3 Zrotation Xrotation Yrotation
                JOINT LeftForeArmRoll
                {
                  OFFSET 0 6.9728 0
                  CHANNELS 3 Zrotation Xrotation Yrotation
                  JOINT LeftHand
                  {
                    OFFSET 0 13.9929 0
                    CHANNELS 3 Zrotation Xrotation Yrotation
                    End Site
                    {
                      OFFSET 0 0 0
                    }
                  }
                }
              }
            }
          }
        }
      }
    }
  }
  JOINT RightUpLeg
  {
    OFFSET -5.53516 -1.015 -0.851454
    CHANNELS 3 Zrotation Xrotation Yrotation
    JOINT RightUpLegRoll
    {
      OFFSET 0 16.4075 0
      CHANNELS 3 Zrotation Xrotation Yrotation
      JOINT RightLeg
      {
        OFFSET 0 -20.3181 0
        CHANNELS 3 Zrotation Xrotation Yrotation
        JOINT RightLegRoll
        {
          OFFSET 0 20.3846 0
          CHANNELS 3 Zrotation Xrotation Yrotation
          JOINT RightFoot
          {
            OFFSET 0 16.9668 0
            CHANNELS 3 Zrotation Xrotation Yrotation
            JOINT RightToeBase
            {
              OFFSET 0 14.1834 0
              CHANNELS 3 Zrotation Xrotation Yrotation
              End Site
              {
                OFFSET 0.0060118 6.8689 -0.791745
              }
            }
          }
        }
      }
    }
  }
  JOINT LeftUpLeg
  {
    OFFSET 5.53516 -1.015 -0.851454
    CHANNELS 3 Zrotation Xrotation Yrotation
    JOINT LeftUpLegRoll
    {
      OFFSET 0 16.4076 0
      CHANNELS 3 Zrotation Xrotation Yrotation
      JOINT LeftLeg
      {
        OFFSET 0 20.3181 0
        CHANNELS 3 Zrotation Xrotation Yrotation
        JOINT LeftLegRoll
        {
          OFFSET 0 20.5731 0
          CHANNELS 3 Zrotation Xrotation Yrotation
          JOINT LeftFoot
          {
            OFFSET 0 16.7783 0
            CHANNELS 3 Zrotation Xrotation Yrotation
            JOINT LeftToeBase
            {
              OFFSET 0 14.1834 0
              CHANNELS 3 Zrotation Xrotation Yrotation
              End Site
              {
                OFFSET -0.0269423 6.8689 -0.791746
              }
            }
          }
        }
      }
    }
  }
}
MOTION
Frames: 10
Frame Time: 0.00208333
49.4345 57.4691 1.67679 -1.62358 36.4511 -3.82599 0.945467 1.57305 -0.00700924 1.90278 7.14166 -0.174691 1.90957 8.78618 -0.207205 -8.14694 21.2516 -2.12975 8.26628 3.35306 -4.86359 40.258 -3.82799 -0.676286 139.181 28.8431 -43.1039 -6.36111e-015 9.96485e-007 1.27222e-014 24.6729 71.2608 -21.8041 -2.75955e-006 2.19306e-006 -2.99999 8.02886 -4.95145 0.697711 -61.5086 -2.53218 1.76712 -99.6886 40.517 31.5486 -1.11319e-014 1.19271e-014 -6.36111e-015 -29.3329 63.9491 22.4438 3.46826e-006 -9.1091e-007 3 -8.03 -4.95137 -0.697642 -29.7356 68.5882 -151.671 180 7.01625e-015 179.343 -171.909 82.3282 171.85 -2.45033e-006 -1.15118e-006 1.46407 -23.1507 72.9684 24.7898 8.14761 25.3969 -3.26335 -26.8659 66.9074 -155.735 4.54188e-006 -4.6773e-006 -0.869864 -175.989 -88.6014 -173.88 -1.35107e-006 3.6246e-006 -1.64357 24.8528 72.1201 -24.0229 -8.76778 33.7881 3.81321 
49.4324 57.4256 1.66095 -1.61901 36.3564 -3.8263 0.944207 1.57187 -0.00821045 1.90026 7.13834 -0.178211 1.90708 8.78286 -0.210689 -8.22704 21.2261 -2.08108 8.28869 3.37736 -4.84488 40.219 -3.81766 -0.66327 139.219 28.8415 -43.0637 -4.77083e-015 9.96485e-007 3.18055e-015 24.6641 71.2267 -21.7843 -2.75955e-006 2.19306e-006 -2.99999 8.02886 -4.95145 0.697711 -61.4541 -2.56211 1.77982 -99.7784 40.5134 31.58 -1.59028e-015 -2.38542e-015 -1.27222e-014 -29.3676 63.9308 22.4615 3.46826e-006 -9.1091e-007 3 -8.03 -4.95137 -0.697642 -29.7641 68.6059 -151.636 180 7.01625e-015 179.342 -171.765 82.3711 171.718 -2.45033e-006 -1.15118e-006 1.46501 -23.111 72.939 24.7476 8.14768 25.3979 -3.26196 -26.8106 66.9401 -155.75 4.54188e-006 -4.6773e-006 -0.869907 -177.253 -88.5598 -175.177 -1.35107e-006 3.6246e-006 -1.64208 24.7502 72.09 -23.9745 -8.76807 33.7928 3.81273 
49.4224 57.3925 1.62634 -1.6141 36.261 -3.8272 0.942934 1.57066 -0.00945925 1.89772 7.13498 -0.181781 1.90458 8.7795 -0.214223 -8.30702 21.2013 -2.03259 8.31024 3.39991 -4.82626 40.1799 -3.80736 -0.65029 139.256 28.8401 -43.0235 7.95139e-015 9.96485e-007 9.54166e-015 24.6542 71.1907 -21.7627 -2.75955e-006 2.19306e-006 -2.99999 8.02886 -4.95145 0.697711 -61.401 -2.59148 1.79232 -99.8672 40.5089 31.6091 -1.59028e-015 1.11319e-014 9.54166e-015 -29.4005 63.9121 22.4776 3.46826e-006 -9.1091e-007 3 -8.03 -4.95137 -0.697642 -29.7939 68.6237 -151.599 180 7.01624e-015 179.34 -171.617 82.4145 171.583 -2.45033e-006 -1.15118e-006 1.46597 -23.0715 72.9097 24.7056 8.14775 25.3989 -3.2606 -26.7568 66.9732 -155.764 4.54188e-006 -4.6773e-006 -0.869962 -178.445 -88.5169 -176.4 -1.35107e-006 3.6246e-006 -1.64065 24.6496 72.0608 -23.9278 -8.76831 33.7971 3.81223 
49.4157 57.3531 1.59127 -1.60878 36.1649 -3.82858 0.941629 1.56941 -0.0107332 1.89513 7.13159 -0.18532 1.90202 8.7761 -0.217725 -8.38606 21.1772 -1.98474 8.33024 3.42012 -4.80786 40.1411 -3.79738 -0.637617 139.294 28.839 -42.9837 -1.90833e-014 9.96485e-007 9.54166e-015 24.6431 71.1531 -21.7394 -2.75955e-006 2.19306e-006 -2.99999 8.02886 -4.95145 0.697711 -61.3511 -2.61968 1.80442 -99.9525 40.5041 31.6351 1.59028e-015 1.03368e-014 -9.54166e-015 -29.4313 63.8933 22.492 3.46826e-006 -9.1091e-007 3 -8.03 -4.95137 -0.697642 -29.8246 68.6413 -151.561 180 7.01624e-015 179.338 -171.465 82.4586 171.444 -2.45033e-006 -1.15118e-006 1.46696 -23.0325 72.8806 24.6642 8.14781 25.3999 -3.25927 -26.7047 67.0066 -155.778 4.54188e-006 -4.6773e-006 -0.870034 -179.565 -88.4725 -177.551 -1.35107e-006 3.6246e-006 -1.63928 24.5511 72.0324 -23.8824 -8.76851 33.8009 3.81171 
49.4197 57.3276 1.56542 -1.603 36.0681 -3.83032 0.940273 1.5681 -0.0120099 1.89245 7.12816 -0.188748 1.89937 8.77268 -0.221114 -8.46334 21.1539 -1.938 8.34801 3.43742 -4.78985 40.1031 -3.78797 -0.625525 139.332 28.8382 -42.9445 -6.36111e-015 9.96485e-007 6.36111e-015 24.6305 71.1142 -21.7145 -2.75955e-006 2.19306e-006 -2.99999 8.02886 -4.95145 0.697711 -61.3064 -2.64609 1.81594 -100.032 40.4995 31.6573 0 0 -3.18055e-015 -29.4596 63.8743 22.5045 3.46826e-006 -9.1091e-007 3 -8.03 -4.95137 -0.697642 -29.8558 68.6589 -151.523 180 7.01624e-015 179.336 -171.307 82.5037 171.3 -2.45033e-006 -1.15118e-006 1.46799 -22.9944 72.8519 24.6236 8.14788 25.4009 -3.25798 -26.6544 67.0399 -155.791 4.54188e-006 -4.6773e-006 -0.870128 179.386 -88.4266 -178.633 -1.35107e-006 3.6246e-006 -1.63796 24.4548 72.0047 -23.8384 -8.76869 33.8045 3.81119 
49.4101 57.2877 1.54944 -1.59669 35.9707 -3.83234 0.938849 1.56674 -0.0132668 1.88965 7.1247 -0.191982 1.8966 8.76922 -0.224307 -8.53806 21.1314 -1.89283 8.36285 3.4512 -4.77237 40.0663 -3.77939 -0.614287 139.369 28.8376 -42.906 -4.77083e-015 9.96485e-007 -6.36111e-015 24.6165 71.0743 -21.688 -2.75955e-006 2.19306e-006 -2.99999 8.02886 -4.95145 0.697711 -61.2688 -2.6701 1.82669 -100.103 40.4955 31.6751 8.82781e-032 1.59028e-015 -3.18055e-015 -29.4853 63.8553 22.515 3.46826e-006 -9.1091e-007 3 -8.03 -4.95137 -0.697642 -29.8868 68.6763 -151.485 180 7.01624e-015 179.334 -171.144 82.55 171.15 -2.45033e-006 -1.15118e-006 1.46906 -22.9572 72.8237 24.5839 8.14794 25.4018 -3.25672 -26.6059 67.073 -155.804 4.54188e-006 -4.6773e-006 -0.870248 178.405 -88.3791 -179.644 -1.35107e-006 3.6246e-006 -1.6367 24.3608 71.9777 -23.7956 -8.76885 33.8078 3.81066 
49.3965 57.2384 1.52034 -1.58978 35.8726 -3.83452 0.937337 1.5653 -0.0144816 1.8867 7.12121 -0.19494 1.89367 8.76573 -0.227221 -8.60942 21.1097 -1.84971 8.37408 3.46089 -4.75558 40.0311 -3.77192 -0.604175 139.405 28.8372 -42.8686 4.77083e-015 9.96485e-007 -3.18055e-015 24.601 71.0337 -21.66 -2.75955e-006 2.19306e-006 -2.99999 8.02886 -4.95145 0.697711 -61.2402 -2.69109 1.83647 -100.162 40.4926 31.6876 1.59028e-015 7.95139e-016 3.18055e-015 -29.5081 63.8365 22.5234 3.46826e-006 -9.1091e-007 3 -8.03 -4.95137 -0.697642 -29.9173 68.6935 -151.448 180 7.01623e-015 179.333 -170.975 82.598 170.995 -2.45033e-006 -1.15118e-006 1.47018 -22.9213 72.7962 24.5456 8.14801 25.4027 -3.25548 -26.5594 67.1057 -155.817 4.54188e-006 -4.6773e-006 -0.8704 177.493 -88.3297 179.413 -1.35107e-006 3.6246e-006 -1.63549 24.2691 71.9513 -23.754 -8.76901 33.8111 3.81015 
49.3991 57.1964 1.49156 -1.58221 35.774 -3.83676 0.935719 1.56377 -0.0156318 1.88355 7.1177 -0.197543 1.89054 8.76222 -0.229775 -8.67659 21.0889 -1.8091 8.38101 3.46588 -4.73964 39.9978 -3.76581 -0.595463 139.439 28.837 -42.8325 -3.18055e-015 9.96485e-007 6.36111e-015 24.5838 70.9927 -21.6305 -2.75955e-006 2.19306e-006 -2.99999 8.02886 -4.95145 0.697711 -61.2224 -2.70844 1.84509 -100.208 40.4914 31.6943 -1.11319e-014 2.14687e-014 -6.36111e-015 -29.5277 63.8179 22.5293 3.46826e-006 -9.1091e-007 3 -8.03 -4.95137 -0.697642 -29.9468 68.7103 -151.411 180 7.01623e-015 179.331 -170.798 82.6478 170.832 -2.45033e-006 -1.15118e-006 1.47136 -22.8869 72.7694 24.5087 8.14807 25.4036 -3.25428 -26.515 67.1379 -155.829 4.54188e-006 -4.6773e-006 -0.870587 176.648 -88.2786 178.537 -1.35107e-006 3.6246e-006 -1.63433 24.1798 71.9254 -23.7134 -8.76918 33.8143 3.80967 
49.3888 57.1732 1.45675 -1.5739 35.6748 -3.83896 0.933978 1.56215 -0.0166949 1.88017 7.11415 -0.199707 1.88717 8.75868 -0.231887 -8.73877 21.069 -1.77146 8.38297 3.46561 -4.72469 39.9669 -3.76134 -0.588422 139.472 28.8371 -42.7978 4.77083e-015 9.96485e-007 -9.54166e-015 24.5648 70.9517 -21.5995 -2.75955e-006 2.19306e-006 -2.99999 8.02886 -4.95145 0.697711 -61.2175 -2.72154 1.85238 -100.238 40.4923 31.6943 -7.95139e-015 -7.95139e-016 -9.54166e-015 -29.5438 63.7997 22.5328 3.46826e-006 -9.1091e-007 3 -8.03 -4.95137 -0.697642 -29.9748 68.7267 -151.376 180 7.01623e-015 179.329 -170.613 82.6998 170.661 -2.45033e-006 -1.15118e-006 1.47261 -22.8543 72.7437 24.4736 8.14813 25.4045 -3.2531 -26.4728 67.1693 -155.842 4.54188e-006 -4.6773e-006 -0.870816 175.87 -88.2254 177.728 -1.35107e-006 3.6246e-006 -1.63322 24.0931 71.9 -23.6738 -8.76937 33.8177 3.80921 
49.3873 57.1337 1.42498 -1.56479 35.575 -3.84102 0.932094 1.56042 -0.0176486 1.87653 7.11059 -0.201352 1.88354 8.75512 -0.233473 -8.79515 21.05 -1.73726 8.37927 3.45947 -4.71089 39.9387 -3.75876 -0.583326 139.503 28.8374 -42.765 4.77083e-015 9.96485e-007 -9.54166e-015 24.544 70.911 -21.5671 -2.75955e-006 2.19306e-006 -2.99999 8.02886 -4.95145 0.697711 -61.2273 -2.72977 1.85813 -100.249 40.4958 31.6871 -4.77083e-015 9.54166e-015 -6.36111e-015 -29.5561 63.7819 22.5335 3.46826e-006 -9.1091e-007 3 -8.03 -4.95137 -0.697642 -30.0008 68.7426 -151.344 180 7.01622e-015 179.327 -170.419 82.7543 170.481 -2.45033e-006 -1.15118e-006 1.47392 -22.8237 72.7191 24.4405 8.14819 25.4054 -3.25195 -26.4328 67.1996 -155.855 4.54188e-006 -4.6773e-006 -0.87109 175.156 -88.1702 176.984 -1.35107e-006 3.6246e-006 -1.63216 24.0089 71.875 -23.635 -8.76959 33.8212 3.8088 
